<svg width="299.998" height="299.998" xmlns="http://www.w3.org/2000/svg">
 <g>
  <title>background</title>
  <rect x="-1" y="-1" width="301.998" height="301.998" id="canvas_background" fill="none"/>
 </g>

 <g>
  <title>Layer 1</title>
  <g id="svg_1">
   <g id="svg_2">
    <path d="m149.995,0c-82.839,0 -149.995,67.159 -149.995,149.997c0,82.837 67.156,150 149.995,150s150.003,-67.163 150.003,-150c-0.001,-82.838 -67.164,-149.997 -150.003,-149.997zm-39.028,105.357c2.075,-2.075 4.793,-3.112 7.511,-3.112c2.718,0 5.434,1.037 7.508,3.112l13.297,13.295l0,-3.911l0,-52.264c0,-5.867 4.754,-10.621 10.621,-10.621s10.621,4.754 10.621,10.621l0,52.263l0,4.63l4.63,-4.63l9.386,-9.384c2.075,-2.075 4.79,-3.112 7.508,-3.112s5.436,1.037 7.511,3.112c2.552,2.549 3.522,6.079 2.933,9.384c0,0.003 -0.003,0.005 -0.003,0.008c-0.044,0.239 -0.119,0.469 -0.179,0.703c-0.091,0.366 -0.189,0.729 -0.322,1.084c-0.088,0.239 -0.189,0.472 -0.296,0.705c-0.166,0.371 -0.358,0.726 -0.568,1.079c-0.112,0.187 -0.215,0.373 -0.34,0.552c-0.363,0.524 -0.76,1.032 -1.227,1.499l-15.115,15.115l-16.591,16.591c-2.077,2.075 -4.793,3.105 -7.508,3.105c-0.026,0 -0.052,0 -0.078,0s-0.054,0 -0.078,0c-2.715,0 -5.431,-1.03 -7.508,-3.105l-16.591,-16.591l-15.115,-15.115c-0.467,-0.467 -0.864,-0.973 -1.222,-1.496c-0.127,-0.184 -0.231,-0.373 -0.345,-0.56c-0.207,-0.35 -0.397,-0.703 -0.563,-1.069c-0.109,-0.239 -0.213,-0.475 -0.301,-0.718c-0.127,-0.348 -0.223,-0.7 -0.314,-1.056c-0.062,-0.246 -0.143,-0.485 -0.187,-0.734c-0.598,-3.301 0.37,-6.831 2.925,-9.38zm120.607,103.958l-0.003,0c0,14.337 -14.057,25.568 -32.005,25.568l-99.132,0c-17.945,0 -32.005,-11.23 -32.005,-25.568l0,-69.005c0,-12.117 10.058,-21.988 24.004,-24.761c0.604,5.981 3.224,11.526 7.534,15.834l4.108,4.108l-3.641,0c-7.265,0 -11.256,3.621 -11.256,4.819l0,69.005c0,1.201 3.992,4.819 11.256,4.819l99.135,0c7.265,0 11.256,-3.621 11.256,-4.819l0,-69.005c0,-1.198 -3.992,-4.819 -11.256,-4.819l-3.12,0l4.111,-4.111c4.282,-4.279 6.894,-9.786 7.516,-15.727c13.681,2.913 23.498,12.69 23.498,24.66l0,69.002z" id="svg_3" fill="#caad44" stroke="#000"/>
   </g>
  </g>
  <g id="svg_4"/>
  <g id="svg_5"/>
  <g id="svg_6"/>
  <g id="svg_7"/>
  <g id="svg_8"/>
  <g id="svg_9"/>
  <g id="svg_10"/>
  <g id="svg_11"/>
  <g id="svg_12"/>
  <g id="svg_13"/>
  <g id="svg_14"/>
  <g id="svg_15"/>
  <g id="svg_16"/>
  <g id="svg_17"/>
  <g id="svg_18"/>
 </g>
</svg>